<svg xmlns="https://www.w3.org/2000/svg" width="30" height="30" viewBox="0 0 30 30"><path d="M24.112 29.996c-3.304 0-5.892-2.577-5.892-5.866 0-.935.039-1.606.114-2.102l-7.543-3.934c-1.096 1.642-2.977 2.716-4.907 2.716-3.304 0-5.891-2.577-5.891-5.867 0-3.288 2.587-5.866 5.891-5.866 1.26 0 2.514.624 3.051.891.345.173.834.608 1.308 1.078l8.007-5.763c.285-3.005 2.757-5.28 5.862-5.28 3.304 0 5.892 2.576 5.892 5.865s-2.588 5.866-5.892 5.866c-1.636 0-3.155-.662-4.171-1.817a1.102 1.102 0 01.104-1.561 1.112 1.112 0 011.569.104c.584.664 1.518 1.061 2.498 1.061 2.058 0 3.67-1.604 3.67-3.653 0-2.048-1.612-3.652-3.67-3.652-2.056 0-3.669 1.604-3.669 3.652 0 .355-.17.689-.459.897l-9.225 6.641a1.115 1.115 0 01-1.472-.149c-.539-.586-1.18-1.204-1.371-1.322-.337-.167-1.296-.644-2.032-.644-2.058 0-3.67 1.604-3.67 3.652 0 2.049 1.612 3.653 3.67 3.653 1.588 0 2.946-1.239 3.412-2.403a1.11 1.11 0 01.648-.627c.295-.11.621-.088.901.057l9.337 4.87a1.103 1.103 0 01.401 1.607c-.041.143-.14.641-.14 2.03 0 2.048 1.613 3.652 3.669 3.652 2.058 0 3.67-1.604 3.67-3.652s-1.612-3.652-3.67-3.652c-.708 0-.874.067-1.391.325a1.12 1.12 0 01-1.494-.495 1.105 1.105 0 01.5-1.485c.79-.395 1.298-.559 2.385-.559 3.304 0 5.892 2.577 5.892 5.866 0 3.289-2.588 5.866-5.892 5.866z" fill="#FFFFFF"></path></svg>